<?xml version="1.0" encoding="utf-8"?>
<!-- Generator: Adobe Illustrator 27.0.0, SVG Export Plug-In . SVG Version: 6.00 Build 0)  -->
<svg version="1.1" id="Layer_1" xmlns="http://www.w3.org/2000/svg" xmlns:xlink="http://www.w3.org/1999/xlink" x="0px" y="0px"
	 viewBox="0 0 300 300" style="enable-background:new 0 0 300 300;" xml:space="preserve">
<style type="text/css">
	.st0{fill:#004E7D;}
	.st1{fill:#EE455F;}
</style>
<g>
	<path class="st0" d="M233.22,124.55c-2.99,0-5.83-1.2-7.99-3.38c-2.15-2.18-3.32-5.02-3.3-8.01c0.07-6.13,5.1-11.15,11.23-11.17
		c3.04,0,5.88,1.2,8.04,3.38c2.16,2.18,3.32,5.02,3.3,8.01c-0.07,6.13-5.1,11.15-11.23,11.17H233.22z"/>
	<path class="st0" d="M232.93,99.92c-5.97-0.12-10.6-4.95-10.54-10.98c0.06-5.99,4.84-10.69,10.89-10.69h0.25
		c5.97,0.12,10.6,4.95,10.53,10.98c-0.06,5.99-4.84,10.69-10.88,10.69C233.18,99.92,232.93,99.92,232.93,99.92"/>
	<path class="st0" d="M233.23,148.74c-2.85,0-5.54-1.12-7.58-3.16c-2.04-2.03-3.16-4.73-3.16-7.58c0-5.91,4.82-10.73,10.74-10.73
		h0.08c2.86,0.02,5.55,1.17,7.57,3.24c2.03,2.07,3.12,4.79,3.07,7.65c-0.08,5.79-4.87,10.53-10.66,10.57L233.23,148.74z"/>
	<path class="st0" d="M208.96,74.95c-2.61-0.03-5.2-1.18-7.1-3.15c-1.87-1.94-2.91-4.52-2.85-7.06c0.12-5.3,4.7-9.82,9.98-9.87h0.09
		c2.56,0,5.12,1.09,7.03,3c1.91,1.91,3,4.48,3,7.05c-0.01,5.35-4.69,10.04-10.02,10.04H208.96z"/>
	<path class="st0" d="M257.79,147.61c-5.29-0.08-9.42-4.32-9.4-9.64c0.02-5.36,4.25-9.56,9.62-9.56h0.17
		c5.29,0.08,9.42,4.32,9.4,9.64c-0.02,5.36-4.25,9.56-9.62,9.56H257.79z"/>
	<path class="st0" d="M209.05,98.67c-2.56,0-4.98-1.03-6.81-2.89c-1.83-1.86-2.81-4.3-2.77-6.86c0.08-5.19,4.39-9.42,9.58-9.42h0.08
		c5.24,0.04,9.5,4.34,9.5,9.58c0,5.24-4.27,9.53-9.51,9.58L209.05,98.67z"/>
	<path class="st0" d="M257.74,121.95c-4.78-0.14-8.5-3.99-8.45-8.77c0.05-4.75,3.94-8.62,8.67-8.62h0.26
		c4.78,0.14,8.5,3.98,8.45,8.77c-0.05,4.75-3.94,8.62-8.67,8.62C257.99,121.96,257.83,121.96,257.74,121.95"/>
	<path class="st0" d="M184.88,75.1c-2.84,0-5.44-1.06-7.33-2.98c-1.9-1.94-2.92-4.59-2.87-7.46c0.1-5.66,4.49-9.93,10.21-9.93h0.14
		c5.75,0.07,10.06,4.48,10.02,10.27C195.02,70.74,190.65,75.09,184.88,75.1"/>
	<path class="st0" d="M233.2,72.77c-4.37-0.01-7.82-3.45-7.84-7.82c-0.02-4.38,3.38-7.86,7.74-7.92h0.11c4.33,0,7.8,3.37,7.89,7.66
		c0.05,2.18-0.74,4.22-2.23,5.74c-1.48,1.51-3.48,2.34-5.65,2.34L233.2,72.77L233.2,72.77z"/>
	<path class="st0" d="M184.81,49.07c-4.92-0.04-8.89-4.07-8.86-8.99c0.04-4.96,3.96-8.85,8.92-8.85h0.07
		c4.91,0.04,8.88,4.07,8.85,8.99c-0.04,4.96-3.96,8.85-8.92,8.85H184.81z"/>
	<path class="st0" d="M208.93,120.43c-3.83-0.08-7.13-3.48-7.05-7.29c0.07-3.76,3.42-7.06,7.16-7.06h0.12
		c3.83,0.08,7.13,3.48,7.06,7.29c-0.07,3.76-3.42,7.06-7.16,7.06H208.93z"/>
	<path class="st0" d="M160.1,48.94c-4.62,0-8.72-4.07-8.77-8.7c-0.03-2.24,0.92-4.49,2.6-6.19c1.68-1.7,3.94-2.68,6.18-2.68
		c4.57,0.02,8.6,3.91,8.79,8.48c0.09,2.21-0.78,4.47-2.41,6.21c-1.66,1.77-3.91,2.82-6.18,2.88H160.1z"/>
	<path class="st0" d="M159.84,73.42c-2.32-0.07-4.44-1.01-5.97-2.64c-1.55-1.65-2.35-3.87-2.26-6.25c0.18-4.64,3.84-8.13,8.51-8.13
		h0.08c2.35,0.02,4.5,0.92,6.06,2.53c1.57,1.61,2.41,3.81,2.37,6.16c-0.09,4.75-3.75,8.33-8.52,8.33
		C160.02,73.42,159.93,73.42,159.84,73.42"/>
	<path class="st0" d="M257.79,95.31c-3.49-0.08-6.08-2.81-6.04-6.33c0.05-3.49,2.73-6.12,6.23-6.12c0.11,0,0.22,0,0.34,0.01
		c3.47,0.16,6,2.95,5.87,6.49c-0.12,3.45-2.75,5.95-6.23,5.95L257.79,95.31z"/>
	<path class="st0" d="M208.98,46.29c-1.69-0.01-3.24-0.65-4.36-1.79c-1.12-1.15-1.73-2.71-1.71-4.41c0.03-3.47,2.67-6.08,6.14-6.08
		c3.55,0.03,6.16,2.7,6.14,6.2c-0.03,3.46-2.67,6.08-6.14,6.08H208.98z"/>
	<path class="st0" d="M184.68,96.27c-1.98-0.05-3.78-0.84-5.08-2.23c-1.31-1.4-1.99-3.27-1.91-5.27c0.15-3.92,3.24-6.88,7.18-6.88
		c1.99,0,3.81,0.75,5.16,2.1c1.34,1.36,2.06,3.2,2.03,5.19c-0.05,4.04-3.14,7.08-7.19,7.08H184.68z"/>
	<path class="st0" d="M135.79,47.02c-1.87-0.05-3.59-0.82-4.87-2.17c-1.27-1.35-1.93-3.12-1.85-4.97c0.15-3.66,3.13-6.55,6.8-6.59
		h0.07c1.84,0,3.57,0.72,4.87,2.03c1.3,1.31,2.01,3.04,1.99,4.89c-0.03,3.76-3.11,6.82-6.86,6.82H135.79z"/>
	<path class="st0" d="M209.02,143.05c-1.43-0.01-2.72-0.52-3.62-1.43c-0.9-0.92-1.39-2.2-1.39-3.64c0.01-2.95,2.09-5.01,5.04-5.01
		c3,0.01,5.06,2.1,5.04,5.07c-0.01,2.95-2.09,5.01-5.04,5.01H209.02z"/>
	<path class="st0" d="M136.11,71.44c-0.11,0-0.23-0.01-0.35-0.01c-3.51-0.22-5.94-2.54-6.33-6.06c-0.18-1.63,0.38-3.33,1.54-4.67
		c1.24-1.43,2.98-2.28,4.77-2.34h0.18c3.46,0,6.52,3.02,6.57,6.48c0.02,1.69-0.69,3.4-1.95,4.68
		C139.33,70.74,137.72,71.44,136.11,71.44"/>
	<path class="st0" d="M37.38,21.05c-2.81-0.11-4.75-1.99-4.95-4.8c-0.1-1.38,0.39-2.75,1.33-3.76c0.94-1.01,2.27-1.59,3.65-1.59
		c0.07,0,0.13,0,0.2,0.01c2.75,0.11,4.66,1.88,4.96,4.64l0.01,0.14c0.05,1.5-0.46,2.86-1.44,3.87c-0.94,0.97-2.2,1.51-3.55,1.51
		C37.53,21.05,37.46,21.05,37.38,21.05"/>
	<path class="st0" d="M37.4,45.41c-2.82-0.11-4.76-1.99-4.96-4.8c-0.1-1.38,0.39-2.75,1.33-3.76c0.94-1.01,2.27-1.59,3.65-1.59
		c0.07,0,0.13,0,0.2,0.01c2.75,0.11,4.66,1.88,4.96,4.64l0.01,0.14c0.05,1.5-0.46,2.86-1.44,3.87c-0.94,0.97-2.2,1.5-3.55,1.5
		C37.53,45.42,37.46,45.42,37.4,45.41"/>
	<path class="st0" d="M37.4,69.78c-2.82-0.11-4.76-1.99-4.96-4.8c-0.1-1.38,0.39-2.75,1.33-3.76c0.94-1.01,2.27-1.58,3.65-1.58h0.2
		c2.75,0.11,4.66,1.88,4.96,4.64l0.01,0.14c0.05,1.5-0.46,2.86-1.44,3.87c-0.94,0.97-2.2,1.5-3.55,1.5
		C37.53,69.79,37.46,69.78,37.4,69.78"/>
	<path class="st0" d="M37.38,94.15c-2.81-0.11-4.75-2-4.95-4.8c-0.1-1.38,0.39-2.75,1.33-3.76c0.94-1.01,2.27-1.59,3.65-1.59h0.18
		c2.77,0.11,4.67,1.88,4.97,4.64l0.01,0.14c0.05,1.51-0.46,2.86-1.43,3.87c-0.94,0.97-2.2,1.51-3.55,1.51H37.38z"/>
	<path class="st0" d="M37.38,118.52c-2.81-0.11-4.75-2-4.95-4.8c-0.1-1.38,0.39-2.75,1.33-3.76c0.94-1.01,2.27-1.59,3.65-1.59h0.18
		c2.77,0.11,4.67,1.88,4.97,4.64l0.01,0.14c0.05,1.51-0.46,2.86-1.43,3.87c-0.94,0.98-2.21,1.51-3.55,1.51H37.38z"/>
	<path class="st0" d="M37.38,142.89c-2.81-0.11-4.75-1.99-4.95-4.8c-0.1-1.38,0.39-2.75,1.33-3.76c0.94-1.01,2.27-1.59,3.65-1.59
		c0.07,0,0.13,0,0.2,0.01c2.75,0.11,4.66,1.89,4.96,4.64l0.01,0.14c0.05,1.51-0.46,2.86-1.44,3.87c-0.94,0.97-2.2,1.5-3.55,1.5
		C37.53,142.89,37.46,142.89,37.38,142.89"/>
	<path class="st0" d="M37.4,167.25c-2.82-0.11-4.76-1.99-4.96-4.8c-0.1-1.38,0.39-2.75,1.33-3.76c0.94-1.01,2.27-1.59,3.65-1.59
		c0.07,0,0.13,0,0.2,0.01c2.75,0.11,4.66,1.88,4.96,4.64l0.01,0.14c0.05,1.51-0.46,2.86-1.44,3.87c-0.94,0.97-2.2,1.5-3.55,1.5
		C37.53,167.26,37.46,167.26,37.4,167.25"/>
	<path class="st0" d="M37.4,191.62c-2.82-0.11-4.76-1.99-4.96-4.8c-0.1-1.38,0.39-2.75,1.33-3.76c0.94-1.01,2.27-1.59,3.65-1.59h0.2
		c2.75,0.11,4.66,1.88,4.96,4.64l0.01,0.14c0.05,1.5-0.46,2.86-1.44,3.87c-0.94,0.97-2.2,1.5-3.55,1.5
		C37.53,191.63,37.46,191.63,37.4,191.62"/>
	<path class="st0" d="M37.38,215.99c-2.81-0.11-4.75-1.99-4.95-4.8c-0.1-1.38,0.39-2.75,1.33-3.76c0.94-1.01,2.27-1.59,3.65-1.59
		h0.18c2.77,0.11,4.67,1.88,4.97,4.64l0.01,0.14c0.05,1.51-0.46,2.86-1.43,3.87c-0.94,0.97-2.2,1.51-3.55,1.51
		C37.53,216,37.46,216,37.38,215.99"/>
	<path class="st0" d="M37.38,240.36c-2.81-0.11-4.75-1.99-4.95-4.8c-0.1-1.38,0.39-2.75,1.33-3.76c0.94-1.01,2.27-1.59,3.65-1.59
		h0.18c2.77,0.11,4.67,1.88,4.97,4.64l0.01,0.14c0.05,1.5-0.46,2.86-1.43,3.87c-0.94,0.98-2.21,1.5-3.55,1.5
		C37.53,240.36,37.46,240.36,37.38,240.36"/>
	<path class="st0" d="M37.4,264.73c-2.82-0.11-4.76-1.99-4.96-4.8c-0.1-1.38,0.39-2.75,1.33-3.76c0.94-1.01,2.27-1.59,3.65-1.59
		c0.07,0,0.13,0,0.2,0.01c2.75,0.11,4.66,1.88,4.96,4.64l0.01,0.14c0.05,1.5-0.46,2.86-1.44,3.87c-0.94,0.97-2.2,1.5-3.55,1.5
		C37.53,264.73,37.46,264.73,37.4,264.73"/>
	<path class="st0" d="M160.01,94.16c-2.82-0.11-4.76-1.99-4.96-4.8c-0.1-1.38,0.39-2.75,1.33-3.76c0.94-1.01,2.27-1.58,3.65-1.58
		h0.19c2.75,0.11,4.65,1.88,4.96,4.64l0.01,0.2c0.05,1.45-0.46,2.8-1.44,3.81c-0.94,0.97-2.2,1.5-3.55,1.5
		C160.14,94.16,160.08,94.16,160.01,94.16"/>
	<path class="st0" d="M135.83,21.05c-2.82-0.11-4.76-2-4.96-4.8c-0.1-1.38,0.38-2.75,1.33-3.76c0.94-1.01,2.27-1.59,3.66-1.59h0.19
		c2.75,0.1,4.66,1.88,4.97,4.64l0.01,0.14c0.05,1.5-0.46,2.86-1.43,3.87c-0.94,0.97-2.21,1.51-3.55,1.51H135.83z"/>
	<path class="st0" d="M184.77,21.05c-2.82-0.11-4.76-2-4.96-4.8c-0.1-1.38,0.39-2.75,1.33-3.76s2.27-1.59,3.66-1.59h0.19
		c2.75,0.1,4.66,1.88,4.96,4.64l0.01,0.14c0.05,1.5-0.46,2.86-1.43,3.87c-0.94,0.97-2.2,1.51-3.55,1.51H184.77z"/>
	<path class="st0" d="M160.01,22.23c-3.54-0.14-5.89-2.41-6.14-5.95c-0.12-1.7,0.47-3.38,1.63-4.62c1.16-1.24,2.79-1.95,4.49-1.95
		c0.08,0,0.16,0,0.24,0.01c3.46,0.13,5.76,2.28,6.14,5.75l0.01,0.14c0.07,1.86-0.57,3.53-1.77,4.78c-1.15,1.19-2.7,1.85-4.36,1.85
		C160.18,22.24,160.09,22.24,160.01,22.23"/>
	<path class="st0" d="M233.12,45.23c-2.81-0.11-4.76-2-4.95-4.8c-0.1-1.38,0.39-2.75,1.33-3.76c0.94-1.01,2.27-1.59,3.66-1.59h0.18
		c2.77,0.11,4.66,1.88,4.97,4.64l0.01,0.2c0.05,1.45-0.46,2.8-1.44,3.81c-0.94,0.97-2.2,1.51-3.55,1.51
		C233.25,45.23,233.18,45.23,233.12,45.23"/>
	<path class="st0" d="M233.18,198.02c-6.13-0.03-11.17-5.04-11.23-11.17c-0.03-2.98,1.14-5.83,3.3-8.01
		c2.16-2.18,4.99-3.38,7.99-3.38c6.18,0.03,11.22,5.04,11.28,11.18c0.03,2.98-1.14,5.83-3.3,8.01c-2.16,2.18-4.99,3.38-7.99,3.38
		C233.23,198.02,233.18,198.02,233.18,198.02"/>
	<path class="st0" d="M233.27,221.75c-6.04,0-10.82-4.7-10.89-10.69c-0.06-6.03,4.57-10.85,10.54-10.98h0.25
		c6.04,0,10.82,4.7,10.89,10.69c0.06,6.03-4.57,10.85-10.53,10.98H233.27z"/>
	<path class="st0" d="M233.23,172.71c-5.91,0-10.73-4.82-10.73-10.73c0-2.85,1.12-5.55,3.15-7.58c2.03-2.03,4.73-3.15,7.58-3.15
		h0.07c5.8,0.04,10.58,4.78,10.66,10.57c0.04,2.87-1.05,5.59-3.08,7.65c-2.02,2.07-4.71,3.22-7.57,3.24H233.23z"/>
	<path class="st0" d="M208.98,245.14c-5.28-0.05-9.85-4.57-9.98-9.87c-0.06-2.55,0.98-5.12,2.85-7.07c1.9-1.97,4.49-3.12,7.1-3.15
		h0.12c5.33,0,10.02,4.69,10.02,10.04c0.01,2.57-1.09,5.14-3,7.05c-1.9,1.91-4.47,3-7.03,3H208.98z"/>
	<path class="st0" d="M258,171.58c-5.38,0-9.6-4.2-9.62-9.56c-0.02-5.32,4.11-9.55,9.4-9.64h0.17c5.38,0,9.6,4.2,9.62,9.56
		c0.02,5.31-4.12,9.54-9.4,9.64H258z"/>
	<path class="st0" d="M209.05,220.5c-5.19,0-9.49-4.23-9.58-9.42c-0.04-2.56,0.94-4.99,2.77-6.85c1.83-1.87,4.25-2.89,6.81-2.89
		h0.08c5.24,0.05,9.5,4.34,9.51,9.58c0,5.24-4.26,9.54-9.5,9.58H209.05z"/>
	<path class="st0" d="M257.96,195.43c-4.74,0-8.63-3.87-8.67-8.61c-0.05-4.78,3.66-8.63,8.45-8.77H258c4.74,0,8.63,3.87,8.67,8.62
		c0.05,4.78-3.67,8.63-8.45,8.77H257.96z"/>
	<path class="st0" d="M184.9,245.28c-5.72,0-10.11-4.27-10.21-9.93c-0.05-2.88,0.96-5.53,2.87-7.46c1.88-1.92,4.48-2.98,7.33-2.98
		c5.77,0,10.15,4.35,10.19,10.11c0.03,5.78-4.27,10.19-10.02,10.27H184.9z"/>
	<path class="st0" d="M233.1,242.96c-4.36-0.06-7.77-3.53-7.74-7.92c0.02-4.37,3.46-7.81,7.84-7.82c2.19,0,4.19,0.83,5.67,2.33
		c1.49,1.52,2.28,3.55,2.23,5.74c-0.09,4.3-3.55,7.66-7.88,7.66L233.1,242.96z"/>
	<path class="st0" d="M184.88,268.76c-4.96,0-8.88-3.89-8.92-8.85c-0.03-4.92,3.93-8.96,8.85-8.99h0.07c4.89,0,8.89,3.97,8.92,8.85
		c0.03,4.92-3.93,8.96-8.85,8.99h-0.01L184.88,268.76L184.88,268.76z"/>
	<path class="st0" d="M209.04,193.91c-3.74,0-7.08-3.3-7.16-7.06c-0.08-3.81,3.22-7.21,7.05-7.29h0.12c3.74,0,7.08,3.3,7.16,7.06
		c0.08,3.81-3.22,7.21-7.06,7.29H209.04z"/>
	<path class="st0" d="M160.12,268.62c-2.24,0-4.5-0.98-6.18-2.68c-1.68-1.69-2.63-3.95-2.6-6.19c0.05-4.64,4.15-8.71,8.77-8.71h0.2
		c2.29,0.06,4.55,1.11,6.2,2.88c1.62,1.74,2.5,4,2.41,6.21c-0.19,4.58-4.2,8.46-8.75,8.48h-0.03V268.62z"/>
	<path class="st0" d="M160.12,243.6c-4.67,0-8.33-3.49-8.51-8.13c-0.09-2.37,0.71-4.59,2.26-6.25c1.53-1.64,3.65-2.58,5.97-2.64
		c0.09,0,0.18-0.01,0.28-0.01c4.77,0,8.43,3.58,8.52,8.33c0.05,2.36-0.8,4.55-2.37,6.16c-1.56,1.61-3.72,2.51-6.06,2.53h-0.01
		H160.12z"/>
	<path class="st0" d="M257.99,217.14c-3.51,0-6.19-2.63-6.23-6.12c-0.05-3.52,2.55-6.24,6.04-6.33h0.18c3.49,0,6.11,2.51,6.23,5.95
		c0.12,3.54-2.4,6.33-5.87,6.49C258.22,217.13,258.11,217.14,257.99,217.14"/>
	<path class="st0" d="M209.06,265.98c-3.47,0-6.12-2.61-6.14-6.08c-0.01-1.7,0.6-3.27,1.71-4.41c1.12-1.15,2.67-1.78,4.36-1.79
		c3.53,0,6.18,2.61,6.2,6.08c0.01,1.7-0.6,3.26-1.71,4.41c-1.12,1.15-2.67,1.78-4.36,1.79H209.06z"/>
	<path class="st0" d="M184.87,218.1c-3.95,0-7.03-2.96-7.18-6.88c-0.08-1.99,0.6-3.87,1.91-5.27c1.3-1.39,3.09-2.18,5.06-2.23h0.2
		c4.06,0,7.14,3.05,7.2,7.08c0.03,1.99-0.7,3.83-2.04,5.19C188.69,217.36,186.85,218.1,184.87,218.1"/>
	<path class="st0" d="M135.89,266.71c-3.67-0.04-6.66-2.94-6.8-6.59c-0.08-1.85,0.58-3.61,1.85-4.97c1.27-1.36,3-2.13,4.85-2.18
		h0.16c3.77,0,6.85,3.06,6.88,6.82c0.01,1.85-0.7,3.58-2,4.89c-1.3,1.31-3.03,2.03-4.87,2.03H135.89z"/>
	<path class="st0" d="M209.05,167.02c-2.96,0-5.02-2.06-5.04-5.01c-0.01-1.43,0.48-2.73,1.39-3.64c0.9-0.92,2.19-1.42,3.62-1.43
		c2.98,0,5.06,2.06,5.07,5.01c0.01,2.97-2.05,5.06-5.01,5.07H209.05z"/>
	<path class="st0" d="M135.76,241.64c-1.8-0.06-3.54-0.92-4.79-2.35c-1.16-1.33-1.72-3.04-1.54-4.67c0.39-3.52,2.81-5.84,6.33-6.06
		c0.12-0.01,0.23-0.01,0.35-0.01c1.61,0,3.23,0.71,4.43,1.93c1.26,1.27,1.97,2.98,1.95,4.68c-0.04,3.45-3.1,6.48-6.55,6.48
		L135.76,241.64z"/>
	<path class="st0" d="M37.42,289.09c-1.38,0-2.71-0.58-3.65-1.59c-0.94-1.01-1.42-2.37-1.33-3.76c0.2-2.81,2.15-4.69,4.96-4.8
		c0.07,0,0.13-0.01,0.2-0.01c1.36,0,2.62,0.54,3.55,1.5c0.97,1.01,1.49,2.36,1.44,3.81l-0.01,0.14c-0.31,2.82-2.22,4.59-4.96,4.7
		C37.55,289.09,37.48,289.09,37.42,289.09"/>
	<path class="st0" d="M160.03,215.99c-1.38,0-2.71-0.58-3.65-1.59c-0.94-1.01-1.42-2.38-1.33-3.76c0.2-2.81,2.15-4.69,4.96-4.8
		c0.07,0,0.14-0.01,0.2-0.01c1.35,0,2.62,0.54,3.55,1.51c0.97,1.01,1.49,2.36,1.44,3.81l-0.01,0.2c-0.31,2.75-2.21,4.53-4.96,4.64
		C160.16,215.99,160.09,215.99,160.03,215.99"/>
	<path class="st0" d="M135.85,289.09c-1.38,0-2.71-0.58-3.66-1.59c-0.94-1.01-1.42-2.37-1.32-3.76c0.2-2.81,2.15-4.69,4.96-4.8
		c0.07,0,0.14-0.01,0.2-0.01c1.35,0,2.62,0.54,3.55,1.5c0.98,1.01,1.49,2.36,1.44,3.81l-0.01,0.13c-0.31,2.82-2.22,4.59-4.96,4.7
		C135.99,289.09,135.92,289.09,135.85,289.09"/>
	<path class="st0" d="M184.78,289.09c-1.38,0-2.71-0.58-3.66-1.58s-1.42-2.38-1.33-3.76c0.2-2.81,2.15-4.69,4.96-4.8
		c0.07,0,0.14-0.01,0.2-0.01c1.35,0,2.62,0.54,3.55,1.5c0.97,1.01,1.49,2.36,1.44,3.81l-0.01,0.13c-0.31,2.82-2.22,4.59-4.97,4.7
		H184.78z"/>
	<path class="st0" d="M159.99,290.28c-1.7,0-3.34-0.71-4.49-1.95c-1.15-1.24-1.75-2.92-1.63-4.62c0.25-3.53,2.6-5.8,6.14-5.95
		c0.09,0,0.17-0.01,0.25-0.01c1.66,0,3.21,0.65,4.36,1.84c1.2,1.25,1.84,2.92,1.78,4.72l-0.01,0.14c-0.39,3.52-2.69,5.68-6.15,5.81
		C160.15,290.28,160.07,290.28,159.99,290.28"/>
	<path class="st0" d="M233.14,264.92c-1.38,0-2.71-0.58-3.66-1.59c-0.94-1.01-1.42-2.37-1.32-3.76c0.2-2.81,2.14-4.69,4.96-4.8
		c0.07,0,0.13-0.01,0.2-0.01c1.35,0,2.62,0.54,3.55,1.5c0.97,1.01,1.49,2.36,1.44,3.81l-0.01,0.2c-0.31,2.75-2.21,4.53-4.96,4.64
		C233.28,264.92,233.21,264.92,233.14,264.92"/>
	<path class="st0" d="M86.57,246.17c-2.92,0-5.79-1.23-7.89-3.37c-2.11-2.15-3.24-4.95-3.19-7.88c0.12-6.02,5.09-10.92,11.08-10.92
		c2.92,0,5.8,1.23,7.89,3.37c2.11,2.15,3.24,4.95,3.19,7.88C97.54,241.27,92.57,246.17,86.57,246.17"/>
	<path class="st0" d="M86.57,173.07c-2.9,0-5.76-1.22-7.86-3.34c-2.11-2.15-3.26-4.94-3.21-7.86c0.09-6.02,5.04-10.93,11.05-10.95
		c2.94,0,5.81,1.22,7.9,3.34c2.11,2.15,3.26,4.94,3.21,7.86c-0.09,6.02-5.04,10.93-11.05,10.95H86.57z"/>
	<path class="st0" d="M86.64,197.82c-0.13,0-0.26,0-0.39-0.01c-6.04-0.23-10.87-5.27-10.76-11.24c0.11-5.92,5.16-10.93,11.01-10.93
		c0.13,0,0.26,0,0.39,0.01c6.04,0.23,10.87,5.27,10.76,11.24C97.54,192.82,92.51,197.82,86.64,197.82"/>
	<path class="st0" d="M86.57,221.99c-2.91,0-5.78-1.22-7.88-3.35c-2.11-2.15-3.25-4.95-3.21-7.87c0.1-6.02,5.06-10.92,11.06-10.94
		c2.93,0,5.8,1.22,7.9,3.35c2.11,2.15,3.25,4.95,3.21,7.87c-0.1,6.02-5.06,10.92-11.06,10.94H86.57z"/>
	<path class="st0" d="M86.57,269.99c-2.75,0-5.32-1.07-7.23-3c-1.92-1.94-2.96-4.54-2.92-7.3c0.07-5.51,4.62-10,10.15-10
		c2.75,0,5.32,1.07,7.23,3c1.92,1.94,2.96,4.54,2.92,7.3C96.65,265.51,92.1,269.99,86.57,269.99"/>
	<path class="st0" d="M61.83,169.75c-4.28,0-7.7-3.35-7.77-7.62c-0.04-2.11,0.75-4.1,2.21-5.59c1.45-1.48,3.42-2.31,5.52-2.32
		c2.14,0,4.1,0.81,5.56,2.28c1.46,1.47,2.26,3.44,2.24,5.55c-0.03,4.19-3.34,7.58-7.52,7.7H61.83z"/>
	<path class="st0" d="M61.73,194.5c-2.11-0.03-4.06-0.86-5.5-2.36c-1.45-1.51-2.22-3.49-2.17-5.61c0.11-4.24,3.52-7.56,7.77-7.56
		c0.1,0,0.19,0,0.29,0.01c2.09,0.08,4.02,0.96,5.42,2.49c1.42,1.54,2.14,3.56,2.03,5.68c-0.2,4.12-3.61,7.35-7.76,7.35L61.73,194.5z
		"/>
	<path class="st0" d="M61.73,242.85c-2.11-0.03-4.06-0.86-5.5-2.36c-1.45-1.5-2.22-3.49-2.17-5.61c0.11-4.24,3.52-7.56,7.77-7.56
		c0.1,0,0.19,0,0.29,0.01c2.09,0.08,4.02,0.96,5.42,2.49c1.42,1.54,2.14,3.57,2.03,5.68c-0.2,4.12-3.61,7.35-7.76,7.35L61.73,242.85
		z"/>
	<path class="st0" d="M61.82,218.68c-2.09,0-4.04-0.8-5.5-2.26c-1.46-1.46-2.26-3.42-2.26-5.51c0-4.35,3.41-7.76,7.76-7.76h0.09
		c2.11,0.03,4.06,0.86,5.5,2.36c1.45,1.51,2.22,3.49,2.17,5.61c-0.11,4.19-3.47,7.5-7.66,7.56L61.82,218.68z"/>
	<path class="st0" d="M61.82,267.13c-0.14,0-0.29,0-0.44-0.01c-4.07-0.22-7.01-3.5-6.84-7.61c0.16-3.96,3.3-6.95,7.29-6.95
		c0.08,0,0.16,0,0.24,0.01c2.02,0.06,3.87,0.89,5.18,2.34c1.33,1.47,1.99,3.42,1.85,5.5C68.82,264.3,65.77,267.13,61.82,267.13"/>
	<path class="st0" d="M86.46,290.27c-3.46-0.13-5.76-2.28-6.14-5.75l-0.01-0.2c-0.06-1.8,0.57-3.47,1.78-4.72
		c1.15-1.19,2.7-1.85,4.36-1.85c0.08,0,0.16,0,0.25,0.01c3.54,0.14,5.89,2.42,6.14,5.95c0.12,1.7-0.47,3.38-1.63,4.62
		c-1.16,1.24-2.79,1.95-4.49,1.95C86.63,290.28,86.55,290.28,86.46,290.27"/>
	<path class="st0" d="M61.72,289.09c-2.75-0.1-4.65-1.88-4.96-4.64l-0.01-0.2c-0.04-1.45,0.47-2.8,1.44-3.81
		c0.93-0.97,2.2-1.5,3.55-1.5c0.07,0,0.14,0,0.21,0.01c2.81,0.11,4.75,2,4.95,4.8c0.1,1.38-0.39,2.75-1.33,3.76
		s-2.27,1.59-3.65,1.59C61.85,289.09,61.78,289.09,61.72,289.09"/>
	<path class="st0" d="M86.57,75.99c-5.99,0-10.96-4.9-11.08-10.92c-0.06-2.92,1.08-5.73,3.19-7.88c2.1-2.14,4.97-3.36,7.89-3.37
		c6,0,10.97,4.9,11.08,10.92c0.06,2.92-1.07,5.72-3.19,7.88C92.37,74.76,89.5,75.99,86.57,75.99"/>
	<path class="st0" d="M86.54,149.1c-6.01-0.03-10.96-4.94-11.05-10.96c-0.05-2.92,1.1-5.72,3.21-7.86c2.09-2.13,4.96-3.34,7.86-3.34
		c6.04,0.03,11,4.94,11.09,10.95c0.05,2.92-1.1,5.72-3.21,7.86c-2.09,2.13-4.96,3.34-7.86,3.34C86.59,149.1,86.54,149.1,86.54,149.1
		"/>
	<path class="st0" d="M86.5,124.34c-5.85,0-10.9-5.01-11.01-10.92c-0.11-5.97,4.72-11.01,10.76-11.24c0.13-0.01,0.26-0.01,0.39-0.01
		c5.85,0,10.9,5,11.01,10.92c0.11,5.97-4.72,11.01-10.76,11.23C86.76,124.34,86.63,124.34,86.5,124.34"/>
	<path class="st0" d="M86.56,100.16c-6-0.01-10.96-4.92-11.06-10.94c-0.05-2.92,1.09-5.72,3.21-7.87c2.09-2.13,4.96-3.35,7.88-3.35
		c6.02,0.01,10.98,4.92,11.09,10.94c0.05,2.92-1.09,5.72-3.21,7.87c-2.09,2.13-4.96,3.35-7.87,3.35H86.56z"/>
	<path class="st0" d="M86.57,50.31c-5.53,0-10.08-4.48-10.15-10c-0.03-2.77,1-5.36,2.92-7.31c1.91-1.94,4.48-3,7.23-3
		c5.53,0,10.08,4.48,10.15,10c0.03,2.77-1,5.36-2.92,7.31C91.89,49.24,89.33,50.31,86.57,50.31"/>
	<path class="st0" d="M61.82,145.77c-2.13-0.01-4.1-0.84-5.55-2.32c-1.46-1.49-2.24-3.47-2.21-5.59c0.07-4.27,3.49-7.62,7.77-7.62
		h0.24c4.19,0.12,7.49,3.51,7.52,7.7c0.01,2.11-0.78,4.07-2.24,5.55C65.89,144.97,63.92,145.77,61.82,145.77"/>
	<path class="st0" d="M61.83,121.03c-4.25,0-7.67-3.32-7.77-7.56c-0.05-2.11,0.71-4.1,2.17-5.61c1.44-1.5,3.4-2.33,5.5-2.36h0.09
		c4.15,0,7.56,3.23,7.77,7.35c0.1,2.12-0.62,4.14-2.04,5.68c-1.41,1.53-3.32,2.41-5.42,2.49H61.83z"/>
	<path class="st0" d="M61.83,72.68c-4.25,0-7.67-3.32-7.77-7.56c-0.05-2.11,0.71-4.1,2.17-5.61c1.44-1.5,3.4-2.33,5.5-2.36h0.09
		c4.15,0,7.56,3.23,7.77,7.35c0.1,2.12-0.62,4.14-2.04,5.68c-1.4,1.53-3.32,2.41-5.42,2.49H61.83z"/>
	<path class="st0" d="M61.82,96.85c-4.36,0-7.76-3.41-7.76-7.77c0-2.09,0.81-4.05,2.26-5.51c1.46-1.46,3.41-2.26,5.5-2.26h0.1
		c4.2,0.05,7.56,3.37,7.67,7.56c0.05,2.11-0.71,4.1-2.17,5.61c-1.44,1.5-3.39,2.34-5.49,2.36L61.82,96.85z"/>
	<path class="st0" d="M61.82,47.44c-3.99,0-7.12-2.99-7.29-6.95c-0.17-4.12,2.77-7.39,6.84-7.61c0.14-0.01,0.29-0.01,0.44-0.01
		c3.95,0,7.01,2.83,7.27,6.74c0.14,2.08-0.52,4.04-1.85,5.5c-1.32,1.45-3.15,2.28-5.19,2.34H61.82z"/>
	<path class="st0" d="M86.44,22.24c-1.66,0-3.21-0.65-4.36-1.84c-1.2-1.25-1.84-2.92-1.78-4.72l0.01-0.14
		c0.39-3.53,2.69-5.68,6.15-5.82c0.08,0,0.16-0.01,0.24-0.01c1.7,0,3.34,0.71,4.49,1.95c1.15,1.24,1.75,2.92,1.63,4.62
		c-0.25,3.53-2.6,5.8-6.14,5.95C86.61,22.24,86.52,22.24,86.44,22.24"/>
	<path class="st0" d="M61.73,21.05c-1.35,0-2.61-0.54-3.55-1.51c-0.97-1.01-1.49-2.36-1.44-3.81l0.01-0.2
		c0.31-2.76,2.21-4.53,4.96-4.64c0.06,0,0.13-0.01,0.2-0.01c1.38,0,2.71,0.58,3.65,1.59c0.94,1.01,1.42,2.37,1.33,3.75
		c-0.2,2.81-2.15,4.69-4.96,4.8C61.87,21.05,61.81,21.05,61.73,21.05"/>
	<path class="st1" d="M150,128.12c12.09,0,21.88,9.8,21.88,21.88s-9.8,21.88-21.88,21.88c-12.09,0-21.88-9.8-21.88-21.88
		S137.91,128.12,150,128.12"/>
</g>
</svg>
